# xmcd
#
# Track frame offsets:
#	150
#	17129
#	33754
#	63269
#
# Disc length: 1793 seconds
#
# Revision: 0
# Processed by: cddbd v1.4PL0 Copyright (c) Steve Scherf et al.
# Submitted via: EasyCDDAExtractor 4.6.0.1
#
DISCID=2606ff04
DTITLE=Ryan Adams - New York, New York Single
DYEAR=1900
DGENRE=
TTITLE0=New York, New York
TTITLE1=Mara'Liza
TTITLE2=From Me To You
TTITLE3=New York, New York (Video)
EXTD=
EXTT0=
EXTT1=
EXTT2=
EXTT3=
PLAYORDER=
